<?xml version="1.0" encoding="UTF-8"?>
<svg version="1.1" xmlns="http://www.w3.org/2000/svg" width="500" height="500">
<path d="M0 0 C165 0 330 0 500 0 C500 165 500 330 500 500 C335 500 170 500 0 500 C0 335 0 170 0 0 Z " fill="#050A30" transform="translate(0,0)"/>
<path d="M0 0 C3.54430247 0.57419488 6.25813119 1.48024137 9.38671875 3.23046875 C10.23081299 3.69727051 11.07490723 4.16407227 11.94458008 4.64501953 C12.84974365 5.15403809 13.75490723 5.66305664 14.6875 6.1875 C16.64262789 7.27321889 18.59838589 8.35780365 20.5546875 9.44140625 C21.59077148 10.01648926 22.62685547 10.59157227 23.69433594 11.18408203 C27.17963301 13.09867875 30.68319035 14.97511804 34.1953125 16.83984375 C35.39233609 17.47696545 36.58935759 18.11409107 37.78637695 18.7512207 C40.11620115 19.98928763 42.44803914 21.2235732 44.78198242 22.45385742 C45.84006104 23.0182251 46.89813965 23.58259277 47.98828125 24.1640625 C49.40427612 24.91357178 49.40427612 24.91357178 50.84887695 25.67822266 C53 27 53 27 54 29 C53.00742188 28.74605469 52.01484375 28.49210937 50.9921875 28.23046875 C49.61982564 27.88267842 48.24742779 27.53503006 46.875 27.1875 C46.22917969 27.02185547 45.58335937 26.85621094 44.91796875 26.68554688 C37.97331416 24.93284834 31.02148463 23.50460385 24 22 C42.15 28.6 60.3 35.2 79 42 C79.226875 49.239375 79.45375 56.47875 79.6875 63.9375 C79.78764404 66.20488037 79.88778809 68.47226074 79.9909668 70.80834961 C80.36066336 85.03914875 80.36066336 85.03914875 76.76171875 90.22558594 C73.95614328 92.51186018 71.16439403 94.25539247 68 96 C66.66839338 97.07329752 65.3640928 98.18217799 64.1015625 99.3359375 C63.24002563 100.08725952 63.24002563 100.08725952 62.36108398 100.85375977 C61.78817627 101.35576904 61.21526855 101.85777832 60.625 102.375 C55.40465704 106.92407039 50.15473463 111.43340633 44.85742188 115.89257812 C41.99720521 118.30247777 39.15163264 120.72742887 36.32421875 123.17578125 C35.70683838 123.70937256 35.08945801 124.24296387 34.45336914 124.79272461 C33.27721309 125.81057311 32.10305294 126.83073495 30.93139648 127.85375977 C29.30564883 129.25909983 27.65816025 130.63312487 26 132 C25.18160645 132.70624512 25.18160645 132.70624512 24.34667969 133.42675781 C18.36622996 138.22418586 12.53237086 138.3787701 5.10546875 137.58203125 C3.46426055 137.33787379 1.82485582 137.08128085 0.1875 136.8125 C-1.06063477 136.64137695 -1.06063477 136.64137695 -2.33398438 136.46679688 C-3.13771484 136.33982422 -3.94144531 136.21285156 -4.76953125 136.08203125 C-5.48729736 135.97093018 -6.20506348 135.8598291 -6.94458008 135.74536133 C-9.80262653 134.70894182 -11.14164526 133.3965486 -13 131 C-13.54589844 128.35986328 -13.54589844 128.35986328 -13.609375 125.3203125 C-13.64168213 124.17715576 -13.67398926 123.03399902 -13.70727539 121.85620117 C-13.72137451 120.62490479 -13.73547363 119.3936084 -13.75 118.125 C-13.77892334 116.85825439 -13.80784668 115.59150879 -13.83764648 114.28637695 C-14.12220657 100.19416577 -14.09751066 86.09404106 -14 72 C-12.47515269 74.82765687 -11.52202985 77.46748233 -10.78125 80.58984375 C-10.57113281 81.45673828 -10.36101562 82.32363281 -10.14453125 83.21679688 C-9.93183594 84.11462891 -9.71914062 85.01246094 -9.5 85.9375 C-9.07631523 87.71825994 -8.64932794 89.49823796 -8.21875 91.27734375 C-8.03248047 92.06359131 -7.84621094 92.84983887 -7.65429688 93.65991211 C-6.94547622 96.19500387 -6.01661244 98.57372437 -5 101 C-6.2050945 94.10242885 -7.41406338 87.20554415 -8.62548828 80.30908203 C-9.03552012 77.97231733 -9.4447265 75.63540762 -9.85302734 73.29833984 C-10.44661574 69.90161411 -11.04307185 66.50540534 -11.640625 63.109375 C-11.83587769 61.99389282 -12.03113037 60.87841064 -12.2322998 59.72912598 C-13.15302046 54.52809256 -14.11605351 49.34617022 -15.22460938 44.18164062 C-15.41585388 43.28302307 -15.60709839 42.38440552 -15.80413818 41.45855713 C-16.15916941 39.81656211 -16.52578277 38.17700131 -16.9072876 36.54095459 C-18.14785974 30.8121579 -18.82933634 24.48943842 -16.01300049 19.11730957 C-14.89274409 17.45755973 -13.6801732 15.9557481 -12.375 14.4375 C-11.70428467 13.61342651 -11.70428467 13.61342651 -11.02001953 12.77270508 C-9.70039972 11.16322248 -8.35613959 9.5787589 -7 8 C-6.2678125 7.13890625 -5.535625 6.2778125 -4.78125 5.390625 C-3.20851716 3.57295835 -1.6199661 1.77552576 0 0 Z " fill="#296AE6" transform="translate(111,182)"/>
<path d="M0 0 C13.35541995 4.31086335 13.35541995 4.31086335 18 9 C19.6767557 14.80379806 19.45607405 20.38178133 19.25 26.375 C19.23799859 27.93356114 19.2314488 29.49217421 19.23046875 31.05078125 C19.21929206 34.14696808 19.17493864 37.23967965 19.09960938 40.33496094 C18.98610831 45.11184258 18.97466393 49.88602723 18.984375 54.6640625 C18.98597626 55.77229874 18.98597626 55.77229874 18.98760986 56.90292358 C18.9906192 58.60195141 18.99512631 60.3009765 19 62 C19.7434668 61.54786133 20.48693359 61.09572266 21.25292969 60.62988281 C78.20881906 26 78.20881906 26 80 26 C80.72826039 32.72773887 80.77801238 37.74673223 76.8125 43.4375 C75.56598636 44.97832936 74.29748741 46.50184186 73 48 C72.278125 48.99 71.55625 49.98 70.8125 51 C66.35736632 54.16809506 61.34814241 54.42850791 56 55 C58.31 55.66 60.62 56.32 63 57 C50.36172918 72.48188175 50.36172918 72.48188175 41 74 C41.99 74.99 41.99 74.99 43 76 C39.71079956 78.72491323 36.36944947 81.37501383 33 84 C32.4652002 84.4218457 31.93040039 84.84369141 31.37939453 85.27832031 C20.54932423 93.72405153 20.54932423 93.72405153 15.6875 93.4375 C7.87334739 90.39130491 0.56594797 84.50952602 -3.03515625 76.77734375 C-3.75635857 74.87538229 -4.38746666 72.93968892 -5 71 C-4.34 71 -3.68 71 -3 71 C-2.731875 70.05125 -2.46375 69.1025 -2.1875 68.125 C-2.001875 67.48046875 -1.81625 66.8359375 -1.625 66.171875 C-1.20279363 64.70470785 -0.78626482 63.23589672 -0.375 61.765625 C1.66345159 54.67737288 4.2824417 47.8529731 7 41 C4.03 45.455 4.03 45.455 1 50 C0.34 49.67 -0.32 49.34 -1 49 C-2.25220695 42.86418594 -2.06887098 36.69527477 -1.96337891 30.46069336 C-1.83198065 26.60466215 -1.83198065 26.60466215 -3 23 C-2.0625 20.875 -2.0625 20.875 -1 19 C-1.66 19 -2.32 19 -3 19 C-3.23063489 12.77285803 -2.61194704 7.03597685 -1 1 C-0.67 0.67 -0.34 0.34 0 0 Z " fill="#3884EB" transform="translate(110,217)"/>
<path d="M0 0 C-1.92052685 2.02722279 -3.96149928 3.80465567 -6.125 5.5625 C-9.00332155 7.67912299 -9.00332155 7.67912299 -10 10 C-9.11646851 9.97643433 -9.11646851 9.97643433 -8.21508789 9.95239258 C-5.49765973 9.889308 -2.78038639 9.85078009 -0.0625 9.8125 C1.32678711 9.77479492 1.32678711 9.77479492 2.74414062 9.73632812 C10.462091 9.65508654 17.0666963 10.21959828 22.84765625 15.69921875 C23.57855469 16.68535156 24.30945313 17.67148438 25.0625 18.6875 C25.81660156 19.68136719 26.57070312 20.67523438 27.34765625 21.69921875 C27.89292969 22.45847656 28.43820313 23.21773437 29 24 C28.505 23.071875 28.01 22.14375 27.5 21.1875 C26 18 26 18 26 15 C44.9379085 18.7254902 44.9379085 18.7254902 51 26 C51.33 26 51.66 26 52 26 C54.95739265 27.33210143 57.43154951 28.96601359 60 30.9375 C60.66 31.44152344 61.32 31.94554687 62 32.46484375 C62.66 32.97144531 63.32 33.47804687 64 34 C64.7425 34.45503906 65.485 34.91007812 66.25 35.37890625 C68 37 68 37 68.58984375 39.45703125 C68 42 68 42 65.75390625 43.88671875 C64.70074219 44.48097656 63.64757812 45.07523438 62.5625 45.6875 C61.68404419 46.19603516 61.68404419 46.19603516 60.7878418 46.71484375 C59.51853993 47.44822554 58.24464356 48.17370001 56.96679688 48.89208984 C53.72380031 50.71889203 50.52081937 52.61318874 47.3125 54.5 C46.62905518 54.89856201 45.94561035 55.29712402 45.24145508 55.70776367 C40.55794894 58.4509083 35.9228759 61.26717791 31.30859375 64.125 C30.72721146 64.48476929 30.14582916 64.84453857 29.54682922 65.21520996 C26.63476017 67.01856896 23.72610738 68.82717354 20.8215332 70.64257812 C19.7512085 71.30708984 18.68088379 71.97160156 17.578125 72.65625 C16.62325195 73.25244141 15.66837891 73.84863281 14.68457031 74.46289062 C12.17243396 75.90126917 9.71303963 77.00246841 7 78 C6.14490528 65.9621558 5.87242642 54.00312429 5.9375 41.9375 C5.94253518 40.28060034 5.94709445 38.62369917 5.95117188 36.96679688 C5.96199438 32.97782584 5.97914243 28.98893065 6 25 C4.84987427 24.55164795 4.84987427 24.55164795 3.67651367 24.09423828 C-0.26447712 22.4830442 -3.87295637 20.33572968 -7.57421875 18.2421875 C-9.842473 16.84806907 -9.842473 16.84806907 -12 17 C-13.16602541 21.9868408 -14.13652508 26.67246087 -13.9375 31.8125 C-13.82820402 35.66518316 -14.51683028 37.92086954 -17 41 C-17.33 41 -17.66 41 -18 41 C-18.50832642 37.16772354 -19.00514174 33.33403696 -19.5 29.5 C-19.64308594 28.42234375 -19.78617187 27.3446875 -19.93359375 26.234375 C-21.94095151 10.55786675 -21.94095151 10.55786675 -19.8203125 7.046875 C-14.37565579 2.88183807 -7.04405018 -2.47756248 0 0 Z " fill="#2E5CF7" transform="translate(122,201)"/>
<path d="M0 0 C1.52484731 2.82765687 2.47797015 5.46748233 3.21875 8.58984375 C3.42886719 9.45673828 3.63898438 10.32363281 3.85546875 11.21679688 C4.06816406 12.11462891 4.28085938 13.01246094 4.5 13.9375 C6.27014301 21.62025111 6.27014301 21.62025111 9 29 C8.855625 27.741875 8.71125 26.48375 8.5625 25.1875 C8.53127807 18.58926616 12.27700192 14.16595879 16 9 C16.81785781 7.77439176 17.6316347 6.54602667 18.4375 5.3125 C18.953125 4.549375 19.46875 3.78625 20 3 C21 5 21 5 20.39501953 6.98364258 C20.06099121 7.77923584 19.72696289 8.5748291 19.3828125 9.39453125 C19.02316406 10.26787109 18.66351563 11.14121094 18.29296875 12.04101562 C17.90753906 12.95560547 17.52210937 13.87019531 17.125 14.8125 C16.37357447 16.60899688 15.62604841 18.40713077 14.8828125 20.20703125 C14.54652832 21.0060083 14.21024414 21.80498535 13.86376953 22.62817383 C12.97135594 25.07865377 12.4507397 27.43447395 12 30 C11.66666667 31.66666667 11.33333333 33.33333333 11 35 C10.34 35 9.68 35 9 35 C12.42810732 43.40661494 17.13755023 50.10587923 25.46875 54.21875 C28.9707996 55.29962951 31.70859967 55.65431771 35.04882812 53.96191406 C35.70302734 53.48463867 36.35722656 53.00736328 37.03125 52.515625 C37.75957031 51.99226563 38.48789063 51.46890625 39.23828125 50.9296875 C40.35783203 50.09824219 40.35783203 50.09824219 41.5 49.25 C42.24636719 48.71117187 42.99273437 48.17234375 43.76171875 47.6171875 C47.58792232 44.8406504 51.33898706 41.9927328 55 39 C53.26043342 37.26043342 50.8063378 37.62809614 48.4375 37.4375 C47.42558594 37.35371094 46.41367188 37.26992188 45.37109375 37.18359375 C44.58863281 37.12300781 43.80617187 37.06242187 43 37 C43 36.67 43 36.34 43 36 C44.03898437 36.020625 45.07796875 36.04125 46.1484375 36.0625 C54.82262735 36.01772327 60.34706517 35.3230639 66.9375 29.14453125 C67.618125 28.43683594 68.29875 27.72914063 69 27 C69.9590625 26.07767578 69.9590625 26.07767578 70.9375 25.13671875 C72.32480685 23.79115956 73.6688859 22.40117274 75 21 C71.37 20.34 67.74 19.68 64 19 C64 18.67 64 18.34 64 18 C65.134375 17.88785156 66.26875 17.77570313 67.4375 17.66015625 C77.71969371 16.57427464 77.71969371 16.57427464 85.8125 10.625 C86.90987681 9.10796127 87.97284436 7.56543721 89 6 C90.32156347 4.32398522 91.65209864 2.65490709 93 1 C93.67935628 5.82411582 93.88169877 10.19166601 93 15 C90.40225795 18.34749687 87.23990138 20.43862579 83.73291016 22.77490234 C80.49504146 25.06394505 77.58865356 27.74708474 74.625 30.375 C73.33852882 31.49757293 72.05076928 32.61867113 70.76171875 33.73828125 C70.13056152 34.28693848 69.4994043 34.8355957 68.84912109 35.40087891 C65.54281957 38.26017056 62.20147255 41.07762323 58.85742188 43.89257812 C55.99720521 46.30247777 53.15163264 48.72742887 50.32421875 51.17578125 C49.70683838 51.70937256 49.08945801 52.24296387 48.45336914 52.79272461 C47.27721309 53.81057311 46.10305294 54.83073495 44.93139648 55.85375977 C43.30564883 57.25909983 41.65816025 58.63312487 40 60 C39.4544043 60.47083008 38.90880859 60.94166016 38.34667969 61.42675781 C32.36622996 66.22418586 26.53237086 66.3787701 19.10546875 65.58203125 C17.46426055 65.33787379 15.82485582 65.08128085 14.1875 64.8125 C13.35541016 64.69841797 12.52332031 64.58433594 11.66601562 64.46679688 C10.86228516 64.33982422 10.05855469 64.21285156 9.23046875 64.08203125 C8.15381958 63.91537964 8.15381958 63.91537964 7.05541992 63.74536133 C4.19737347 62.70894182 2.85835474 61.3965486 1 59 C0.45410156 56.35986328 0.45410156 56.35986328 0.390625 53.3203125 C0.35831787 52.17715576 0.32601074 51.03399902 0.29272461 49.85620117 C0.27862549 48.62490479 0.26452637 47.3936084 0.25 46.125 C0.22107666 44.85825439 0.19215332 43.59150879 0.16235352 42.28637695 C-0.12220657 28.19416577 -0.09751066 14.09404106 0 0 Z " fill="#3690D9" transform="translate(97,254)"/>
<path d="M0 0 C0.72826039 6.72773887 0.77801238 11.74673223 -3.1875 17.4375 C-4.43401364 18.97832936 -5.70251259 20.50184186 -7 22 C-7.721875 22.99 -8.44375 23.98 -9.1875 25 C-13.64263368 28.16809506 -18.65185759 28.42850791 -24 29 C-21.69 29.66 -19.38 30.32 -17 31 C-29.43981395 46.23877209 -29.43981395 46.23877209 -36.48046875 47.4140625 C-37.82044922 47.51847656 -37.82044922 47.51847656 -39.1875 47.625 C-40.08855469 47.69976562 -40.98960937 47.77453125 -41.91796875 47.8515625 C-42.60503906 47.90054688 -43.29210937 47.94953125 -44 48 C-43.01 48.66 -42.02 49.32 -41 50 C-43.41339796 51.00858422 -45.83018675 52.00702673 -48.25 53 C-49.27287109 53.42925781 -49.27287109 53.42925781 -50.31640625 53.8671875 C-53.81415735 55.29345494 -56.16900189 56 -60 56 C-60.17366159 54.54248309 -60.3383984 53.08390329 -60.5 51.625 C-60.5928125 50.81289063 -60.685625 50.00078125 -60.78125 49.1640625 C-60.8534375 48.11992187 -60.925625 47.07578125 -61 46 C-61.15823242 45.24477051 -61.31646484 44.48954102 -61.47949219 43.71142578 C-61.88487285 40.75850584 -61.90081073 38.85602915 -61 36 C-57.23295379 32.39816111 -52.79846463 30.08250325 -48.25 27.625 C-46.96273971 26.89382864 -45.6775894 26.15893058 -44.39453125 25.42041016 C-41.82010934 23.94411805 -39.23639165 22.48685845 -36.64257812 21.04492188 C-31.68620817 18.27973467 -26.84655801 15.32706808 -22 12.375 C-1.37984968 0 -1.37984968 0 0 0 Z " fill="#5A77F7" transform="translate(190,243)"/>
<path d="M0 0 C0.91241455 0.48686279 1.8248291 0.97372559 2.76489258 1.4753418 C4.03726277 2.15415167 5.30964314 2.83294246 6.58203125 3.51171875 C7.25837112 3.87255051 7.934711 4.23338226 8.63154602 4.60514832 C12.63058066 6.73809625 16.63142987 8.86756964 20.63449097 10.99295044 C23.04902712 12.27568165 25.46202081 13.56129693 27.87475586 14.84741211 C29.1023106 15.50095068 30.33052124 16.15325848 31.55932617 16.80444336 C33.37848997 17.76881648 35.19530777 18.73748534 37.01171875 19.70703125 C38.06834717 20.2688208 39.12497559 20.83061035 40.21362305 21.40942383 C42.64366974 22.79659234 44.81446197 24.26016863 47 26 C46.23558594 26.4626123 45.47117188 26.92522461 44.68359375 27.40185547 C41.76990542 29.16593422 38.85672874 30.93085058 35.94403076 32.69656372 C34.65186613 33.47985055 33.35958975 34.26295307 32.06719971 35.04586792 C23.80783034 40.05072794 15.56364088 45.07402118 7.4453125 50.30615234 C3.21331477 53 3.21331477 53 1 53 C0.14490528 40.9621558 -0.12757358 29.00312429 -0.0625 16.9375 C-0.05746482 15.28060034 -0.05290555 13.62369917 -0.04882812 11.96679688 C-0.03800562 7.97782584 -0.02085757 3.98893065 0 0 Z " fill="#060C34" transform="translate(128,226)"/>
<path d="M0 0 C0.33 0 0.66 0 1 0 C1.28748174 7.50722502 1.57199126 15.01455857 1.85449219 22.52197266 C1.95082224 25.07277949 2.04781792 27.62356129 2.14550781 30.17431641 C2.28628222 33.85312527 2.42461603 37.5320193 2.5625 41.2109375 C2.60624756 42.34050873 2.64999512 43.47007996 2.69506836 44.63388062 C2.93452907 51.09480289 3.04208543 57.53462551 3 64 C11.415 61.03 11.415 61.03 20 58 C19.67 57.34 19.34 56.68 19 56 C21.31 56.33 23.62 56.66 26 57 C22.12523392 61.10665363 17.95567377 64.39961404 13.375 67.6875 C12.70726562 68.17283203 12.03953125 68.65816406 11.3515625 69.15820312 C2.58224336 75.5159595 2.58224336 75.5159595 -2.81640625 74.6640625 C-9.46881872 72.64096747 -15.21302235 66.67456775 -19 61 C-20.2319378 58.35482034 -21.11807873 55.79275067 -22 53 C-21.34 53 -20.68 53 -20 53 C-18.921875 54.609375 -18.921875 54.609375 -17.75 56.75 C-15.3781948 60.67286842 -13.20148977 62.94212746 -9 65 C-5.74822148 65.33594133 -5.74822148 65.33594133 -3 65 C-3.41572266 64.12988281 -3.41572266 64.12988281 -3.83984375 63.2421875 C-4.20207031 62.46101563 -4.56429687 61.67984375 -4.9375 60.875 C-5.29714844 60.10929687 -5.65679687 59.34359375 -6.02734375 58.5546875 C-10.80117456 46.01619211 -8.65215958 29.49099958 -5 17 C-4.64412871 15.64956562 -4.29280235 14.29792781 -3.9453125 12.9453125 C-1.24326757 2.48653514 -1.24326757 2.48653514 0 0 Z " fill="#49A4E8" transform="translate(127,235)"/>
<path d="M0 0 C10.23 0 20.46 0 31 0 C31 2.64 31 5.28 31 8 C23.41 8 15.82 8 8 8 C8 11.3 8 14.6 8 18 C14.6 18 21.2 18 28 18 C28 20.64 28 23.28 28 26 C21.4 26 14.8 26 8 26 C8 31.94 8 37.88 8 44 C5.36 44 2.72 44 0 44 C0 29.48 0 14.96 0 0 Z " fill="#E6E8F0" transform="translate(218,245)"/>
<path d="M0 0 C1.90999753 0.67424552 3.81517556 1.36225415 5.71606445 2.06176758 C6.73932327 2.42724197 7.76258209 2.79271637 8.81684875 3.16926575 C12.07539012 4.33649912 15.32725059 5.52123991 18.5793457 6.70629883 C20.74495728 7.48411742 22.91096974 8.2608208 25.07739258 9.03637695 C35.39753308 12.74149065 45.68062124 16.52240588 55.8918457 20.51879883 C55.8918457 25.13879883 55.8918457 29.75879883 55.8918457 34.51879883 C52.3043601 32.72505603 49.72428349 30.90841912 46.6418457 28.39379883 C45.74981445 27.6693457 44.8577832 26.94489258 43.9387207 26.19848633 C43.26325195 25.64418945 42.5877832 25.08989258 41.8918457 24.51879883 C41.2318457 25.17879883 40.5718457 25.83879883 39.8918457 26.51879883 C39.4380957 25.61129883 38.9843457 24.70379883 38.5168457 23.76879883 C35.47333962 19.2354646 30.88564293 18.15633125 25.8918457 16.51879883 C24.79614258 16.1449707 23.70043945 15.77114258 22.5715332 15.38598633 C19.68444573 14.40997331 16.79185917 13.45557294 13.8918457 12.51879883 C14.19219727 13.0730957 14.49254883 13.62739258 14.80200195 14.19848633 C15.18227539 14.92293945 15.56254883 15.64739258 15.9543457 16.39379883 C16.52862305 17.47274414 16.52862305 17.47274414 17.11450195 18.57348633 C17.37102539 19.21543945 17.62754883 19.85739258 17.8918457 20.51879883 C17.5618457 21.17879883 17.2318457 21.83879883 16.8918457 22.51879883 C16.2627832 21.67575195 15.6337207 20.83270508 14.9855957 19.96411133 C14.12205514 18.8565267 13.25741243 17.74980075 12.3918457 16.64379883 C11.98192383 16.08821289 11.57200195 15.53262695 11.1496582 14.96020508 C8.29301941 11.36776538 5.88072892 9.63282003 1.20239258 8.75756836 C-3.40265301 8.2816877 -7.98418481 8.31491221 -12.6081543 8.39379883 C-13.62135742 8.40282227 -14.63456055 8.4118457 -15.6784668 8.42114258 C-18.1552823 8.44450876 -20.63158809 8.47726715 -23.1081543 8.51879883 C-17.5488345 -1.27079055 -10.43420314 -3.38311251 0 0 Z " fill="#3485E1" transform="translate(134.108154296875,203.481201171875)"/>
<path d="M0 0 C3.15994505 -0.56879011 5.86585831 -0.7797133 9 0 C11.59844343 2.69293228 13.3166991 5.67300529 15 9 C15.31710937 8.3503125 15.63421875 7.700625 15.9609375 7.03125 C17.4617211 4.34476443 18.82130344 2.18295183 21 0 C24.45459085 -0.78653631 27.51969146 -0.55712449 31 0 C29.87540329 1.77108948 28.75030797 3.54186236 27.625 5.3125 C26.99851562 6.29863281 26.37203125 7.28476562 25.7265625 8.30078125 C24.50348387 10.21287929 23.2590644 12.1114034 22 14 C22.26954036 18.00832607 24.8432951 20.97415393 27.0625 24.1875 C31 29.91036907 31 29.91036907 31 31 C27.7 31 24.4 31 21 31 C19.35 28.03 17.7 25.06 16 22 C13.14641972 25.4823931 13.14641972 25.4823931 10.8125 29.3125 C8.49663177 31.46865318 7.41883886 31.24514635 4.3125 31.25 C2.8740202 31.18576167 1.43583001 31.10836453 0 31 C4.4178273 22.68941504 4.4178273 22.68941504 7.375 19.1875 C9.21190242 17.2176996 9.21190242 17.2176996 8.85546875 15.25 C7.65881073 12.10262549 5.84836997 9.57938579 3.9375 6.8125 C0 1.08963093 0 1.08963093 0 0 Z " fill="#EBEDF5" transform="translate(285,258)"/>
<path d="M0 0 C4.15300018 1.92268527 5.65048757 3.37087762 7.875 7.375 C9 11 9 11 9 17 C1.74 17 -5.52 17 -13 17 C-11.1428089 24.71211684 -11.1428089 24.71211684 -8 26 C-5.92435324 26.19758231 -5.92435324 26.19758231 -3.625 26.1875 C-2.85414063 26.20167969 -2.08328125 26.21585938 -1.2890625 26.23046875 C1.21834888 25.97801607 2.83261902 25.25193467 5 24 C5.66 25.32 6.32 26.64 7 28 C1.54768543 31.53663648 -3.69618558 31.85654883 -10 31 C-14.38736313 28.62351164 -16.38209321 25.68341439 -18 21 C-18.94594439 14.21206937 -18.33077099 9.26882977 -14.484375 3.55859375 C-10.44904672 -0.67850094 -5.5113501 -0.75589698 0 0 Z " fill="#E3E5ED" transform="translate(392,206)"/>
<path d="M0 0 C0.33 0 0.66 0 1 0 C1.67935628 4.82411582 1.88169877 9.19166601 1 14 C-1.59774205 17.34749687 -4.76009862 19.43862579 -8.26708984 21.77490234 C-11.50497354 24.06395565 -14.41124965 26.7471719 -17.375 29.375 C-18.65630419 30.49231808 -19.93885672 31.60820622 -21.22265625 32.72265625 C-21.85316895 33.27066895 -22.48368164 33.81868164 -23.13330078 34.38330078 C-27.06142121 37.78534282 -31.0169101 41.15311393 -35.01171875 44.4765625 C-36.92726246 46.09413274 -38.80913787 47.75296434 -40.64453125 49.4609375 C-45.13878671 53.49515106 -47.95582428 55.47639346 -54.125 55.5 C-55.75363314 55.37367942 -57.38156705 55.22153455 -59 55 C-55.67506634 51.41738398 -51.98571343 48.71832725 -48 45.9375 C-46.77055888 45.07200432 -45.54138514 44.20612866 -44.3125 43.33984375 C-43.74015625 42.93749512 -43.1678125 42.53514648 -42.578125 42.12060547 C-40.69225478 40.78147423 -38.83922509 39.40240913 -37 38 C-38.73956658 36.26043342 -41.1936622 36.62809614 -43.5625 36.4375 C-44.57441406 36.35371094 -45.58632812 36.26992188 -46.62890625 36.18359375 C-47.80259766 36.09271484 -47.80259766 36.09271484 -49 36 C-49 35.67 -49 35.34 -49 35 C-47.96101562 35.020625 -46.92203125 35.04125 -45.8515625 35.0625 C-37.17737265 35.01772327 -31.65293483 34.3230639 -25.0625 28.14453125 C-24.381875 27.43683594 -23.70125 26.72914063 -23 26 C-22.0409375 25.07767578 -22.0409375 25.07767578 -21.0625 24.13671875 C-19.67519315 22.79115956 -18.3311141 21.40117274 -17 20 C-20.63 19.34 -24.26 18.68 -28 18 C-28 17.67 -28 17.34 -28 17 C-26.2984375 16.83177734 -26.2984375 16.83177734 -24.5625 16.66015625 C-14.26323509 15.56102051 -14.26323509 15.56102051 -6.125 9.625 C-4.35610109 7.23081589 -2.87123655 4.78005478 -1.3671875 2.2109375 C-0.91601562 1.48132813 -0.46484375 0.75171875 0 0 Z " fill="#3E8CDF" transform="translate(189,255)"/>
<path d="M0 0 C12.54324995 4.97570247 21.48063211 12.87984654 31.0625 22.08984375 C31.92359375 22.9096875 32.7846875 23.72953125 33.671875 24.57421875 C37.71737271 28.50495056 37.71737271 28.50495056 39.0625 30.08984375 C39.0625 30.74984375 39.0625 31.40984375 39.0625 32.08984375 C35.05764862 30.58154735 31.348143 28.72543892 27.57421875 26.7109375 C26.95798141 26.38269485 26.34174408 26.05445221 25.70683289 25.71626282 C23.71956421 24.65635808 21.7345743 23.59228397 19.75 22.52734375 C19.07664612 22.16668823 18.40329224 21.80603271 17.70953369 21.43444824 C13.15585924 18.99485844 8.60753974 16.54547807 4.0625 14.08984375 C2.62463135 13.31374756 2.62463135 13.31374756 1.15771484 12.52197266 C-1.08787377 11.30427261 -3.32711255 10.07614486 -5.5625 8.83984375 C-6.17520752 8.50654053 -6.78791504 8.1732373 -7.41918945 7.82983398 C-10.75930821 5.95740926 -13.36423307 3.92671363 -15.9375 1.08984375 C-10.57940337 -1.88820549 -5.82033808 -1.80337603 0 0 Z " fill="#223CFB" transform="translate(125.9375,213.91015625)"/>
<path d="M0 0 C0.74022599 4.66342372 1.12430943 7.44147451 -1.69921875 11.35546875 C-13.19207666 22.39241164 -35.03734365 31.45988932 -51 32.125 C-51.66 32.08375 -52.32 32.0425 -53 32 C-48.54401855 28.17149349 -43.66533848 25.28711819 -38.625 22.3125 C-36.82548851 21.24224185 -35.02600962 20.17192888 -33.2265625 19.1015625 C-32.34000977 18.57594727 -31.45345703 18.05033203 -30.54003906 17.50878906 C-27.63521907 15.78331928 -24.73955049 14.04310133 -21.84570312 12.29931641 C-1.42786561 0 -1.42786561 0 0 0 Z " fill="#6359FC" transform="translate(190,243)"/>
<path d="M0 0 C0.99 0 1.98 0 3 0 C3 45.54 3 91.08 3 138 C2.01 138 1.02 138 0 138 C0 92.46 0 46.92 0 0 Z " fill="#E1E3EC" transform="translate(200,182)"/>
<path d="M0 0 C3.81953516 0.59218592 6.6816614 1.71093109 10.0546875 3.58203125 C10.99957031 4.10216797 11.94445312 4.62230469 12.91796875 5.15820312 C13.89378906 5.70412109 14.86960938 6.25003906 15.875 6.8125 C16.84308594 7.34681641 17.81117188 7.88113281 18.80859375 8.43164062 C23.89670838 11.24567953 28.95991743 14.10089958 34 17 C30.56437796 18.18198006 28.65163309 17.77648449 25.25 16.625 C15.98721168 13.92697978 4.05704979 12.11840723 -5 16 C-10.25384639 19.82424619 -10.25384639 19.82424619 -14 25 C-14.23172827 27.54615009 -14.41894529 30.07396225 -14.5625 32.625 C-14.60568359 33.33140625 -14.64886719 34.0378125 -14.69335938 34.765625 C-14.79944751 36.51018537 -14.90022889 38.25506697 -15 40 C-15.33 40 -15.66 40 -16 40 C-19.2683522 27.06164706 -19.2683522 27.06164706 -17 21 C-14.00173041 16.37149257 -10.58944987 12.17868186 -7 8 C-6.2678125 7.13890625 -5.535625 6.2778125 -4.78125 5.390625 C-3.20851716 3.57295835 -1.6199661 1.77552576 0 0 Z " fill="#257CD5" transform="translate(111,182)"/>
<path d="M0 0 C18.9379085 3.7254902 18.9379085 3.7254902 25 11 C25.33 11 25.66 11 26 11 C28.95739265 12.33210143 31.43154951 13.96601359 34 15.9375 C34.66 16.44152344 35.32 16.94554687 36 17.46484375 C36.66 17.97144531 37.32 18.47804687 38 19 C38.72960937 19.50789063 39.45921875 20.01578125 40.2109375 20.5390625 C42 22 42 22 42.625 24.4375 C42 27 42 27 39.1875 29.3125 C36 31 36 31 33 31 C31.5625 29.56640625 31.5625 29.56640625 30 27.5625 C22.88888902 19.12735372 14.1156173 13.19523188 4.65234375 7.7265625 C2 6 2 6 0 3 C0 2.01 0 1.02 0 0 Z " fill="#366DF5" transform="translate(148,216)"/>
<path d="M0 0 C1.65 0 3.3 0 5 0 C5.33 0.99 5.66 1.98 6 3 C6.474375 2.505 6.94875 2.01 7.4375 1.5 C11.22043359 -0.71440015 14.72164755 -0.83889264 19 0 C21.75569447 2.18159145 23.43588747 3.87177494 25 7 C25.08471364 8.81341842 25.10721083 10.62994161 25.09765625 12.4453125 C25.09443359 13.52167969 25.09121094 14.59804687 25.08789062 15.70703125 C25.07951172 16.83496094 25.07113281 17.96289062 25.0625 19.125 C25.05798828 20.26066406 25.05347656 21.39632812 25.04882812 22.56640625 C25.03701615 25.37765638 25.02054507 28.1888023 25 31 C23.35 31 21.7 31 20 31 C19.98018066 30.31897217 19.96036133 29.63794434 19.93994141 28.9362793 C19.84473017 25.85296083 19.73503534 22.77032351 19.625 19.6875 C19.5940625 18.61564453 19.563125 17.54378906 19.53125 16.43945312 C19.49257813 15.41142578 19.45390625 14.38339844 19.4140625 13.32421875 C19.3826416 12.37635498 19.3512207 11.42849121 19.31884766 10.4519043 C19.1510949 7.7469731 19.1510949 7.7469731 17 5 C12.92789115 4.46926747 12.92789115 4.46926747 9 5 C6.19524893 8.00656578 5.60636723 10.14096723 5.48828125 14.203125 C5.45283203 15.1828125 5.41738281 16.1625 5.38085938 17.171875 C5.35830078 18.18765625 5.33574219 19.2034375 5.3125 20.25 C5.27833984 21.28125 5.24417969 22.3125 5.20898438 23.375 C5.12661907 25.91655812 5.05743166 28.45777626 5 31 C3.35 31 1.7 31 0 31 C0 20.77 0 10.54 0 0 Z " fill="#E3E6EE" transform="translate(306,206)"/>
<path d="M0 0 C4.23429756 1.31061591 8.07407404 2.94356259 12 5 C11.53851563 5.54011719 11.07703125 6.08023438 10.6015625 6.63671875 C8.75953218 9.35483666 8.12031338 11.62239491 7.375 14.8125 C7.01535156 16.30716797 7.01535156 16.30716797 6.6484375 17.83203125 C5.64870403 22.71627129 4.97416498 27.49792433 4.82421875 32.48046875 C4.80037109 33.25197266 4.77652344 34.02347656 4.75195312 34.81835938 C4.70867323 36.40922344 4.67759388 38.00046233 4.65820312 39.59179688 C4.44699022 45.44190323 4.44699022 45.44190323 1.95703125 48.55078125 C1.31121094 49.02902344 0.66539063 49.50726563 0 50 C-2.63224208 45.07615894 -2.19011823 40.23047415 -2.0625 34.8125 C-2.02813806 33.00658901 -1.99798108 31.20059158 -1.97265625 29.39453125 C-1.95468994 28.59893799 -1.93672363 27.80334473 -1.91821289 26.98364258 C-1.86737515 24.92359359 -1.86737515 24.92359359 -3 23 C-2.0625 20.875 -2.0625 20.875 -1 19 C-1.66 19 -2.32 19 -3 19 C-3.23063489 12.77285803 -2.61194704 7.03597685 -1 1 C-0.67 0.67 -0.34 0.34 0 0 Z " fill="#3778F3" transform="translate(110,217)"/>
<path d="M0 0 C2.31 0 4.62 0 7 0 C7.33 12.21 7.66 24.42 8 37 C9.32 37.33 10.64 37.66 12 38 C12 39.98 12 41.96 12 44 C8.95016004 45.52491998 6.3576631 45.23562548 3 45 C0.92704363 43.47288626 0.11003374 42.59635468 -0.36076355 40.04475403 C-0.35410172 39.30529037 -0.34743988 38.56582672 -0.34057617 37.80395508 C-0.34034958 36.96331009 -0.34012299 36.1226651 -0.33988953 35.25654602 C-0.32440567 34.35333115 -0.30892181 33.45011627 -0.29296875 32.51953125 C-0.28872391 31.59154221 -0.28447906 30.66355316 -0.28010559 29.70744324 C-0.26330662 26.74216757 -0.22565216 23.7775704 -0.1875 20.8125 C-0.17245474 18.80274419 -0.15876606 16.79297773 -0.14648438 14.78320312 C-0.11339908 9.85520714 -0.06160833 4.92771862 0 0 Z " fill="#EFF1F7" transform="translate(255,245)"/>
<path d="M0 0 C1.65 0 3.3 0 5 0 C5.33 0.99 5.66 1.98 6 3 C6.474375 2.505 6.94875 2.01 7.4375 1.5 C11.22155914 -0.71505901 14.71551811 -0.7102617 19 0 C21.87029869 1.79393668 23.49131638 2.98263276 25 6 C25.084915 7.8863912 25.107193 9.77578515 25.09765625 11.6640625 C25.09443359 12.78554687 25.09121094 13.90703125 25.08789062 15.0625 C25.07951172 16.238125 25.07113281 17.41375 25.0625 18.625 C25.05798828 19.80835938 25.05347656 20.99171875 25.04882812 22.2109375 C25.03701467 25.14067507 25.02054258 28.07031272 25 31 C23.68 31 22.36 31 21 31 C20.98541748 30.35450195 20.97083496 29.70900391 20.95581055 29.04394531 C20.8812213 26.11203427 20.7845976 23.18124835 20.6875 20.25 C20.66494141 19.23421875 20.64238281 18.2184375 20.61914062 17.171875 C20.5659668 15.70234375 20.5659668 15.70234375 20.51171875 14.203125 C20.48553467 13.30239258 20.45935059 12.40166016 20.43237305 11.47363281 C19.91763348 8.52877605 19.08933333 7.12297848 17 5 C13.54271642 4.24988633 13.54271642 4.24988633 10 5 C7.4193364 7.20537859 6.17103006 9.00733299 5.59008789 12.37915039 C5.38228244 15.19507958 5.29171271 17.98930827 5.25 20.8125 C5.22035156 21.79154297 5.19070312 22.77058594 5.16015625 23.77929688 C5.08970798 26.18627953 5.03688975 28.5923079 5 31 C3.35 31 1.7 31 0 31 C0 20.77 0 10.54 0 0 Z " fill="#E6E8F0" transform="translate(235,206)"/>
<path d="M0 0 C0 1.32 0 2.64 0 4 C-2.31 4.66 -4.62 5.32 -7 6 C-7.33 8.31 -7.66 10.62 -8 13 C-5.03 13 -2.06 13 1 13 C1 14.32 1 15.64 1 17 C-1.97 17 -4.94 17 -8 17 C-8 25.91 -8 34.82 -8 44 C-9.65 44 -11.3 44 -13 44 C-13 35.09 -13 26.18 -13 17 C-14.65 17 -16.3 17 -18 17 C-18 15.68 -18 14.36 -18 13 C-16.35 13 -14.7 13 -13 13 C-13.12375 11.1746875 -13.12375 11.1746875 -13.25 9.3125 C-13.22248084 6.21384271 -12.94738563 4.89019609 -11.5625 2 C-7.84198173 -0.90381914 -4.55500448 -0.4379812 0 0 Z " fill="#E3E6EE" transform="translate(284,193)"/>
<path d="M0 0 C0.66 0 1.32 0 2 0 C3.078125 1.609375 3.078125 1.609375 4.25 3.75 C6.68539708 7.72687674 8.66229527 9.99180336 13 12 C16.6952466 12.59716002 20.24832668 12.81699155 24 13 C24 9.04 24 5.08 24 1 C24.33 1 24.66 1 25 1 C25 4.3 25 7.6 25 11 C30.61 9.02 36.22 7.04 42 5 C41.505 4.01 41.505 4.01 41 3 C43.31 3.33 45.62 3.66 48 4 C44.12523392 8.10665363 39.95567377 11.39961404 35.375 14.6875 C34.70726562 15.17283203 34.03953125 15.65816406 33.3515625 16.15820312 C24.58224336 22.5159595 24.58224336 22.5159595 19.18359375 21.6640625 C12.53118128 19.64096747 6.78697765 13.67456775 3 8 C1.7680622 5.35482034 0.88192127 2.79275067 0 0 Z " fill="#5193EF" transform="translate(105,288)"/>
<path d="M0 0 C1.50478417 0.54957335 3.00484648 1.11224163 4.5 1.6875 C5.66208984 2.11675781 5.66208984 2.11675781 6.84765625 2.5546875 C8.73607828 3.25410307 10.61868738 3.96918064 12.5 4.6875 C11.84 5.0175 11.18 5.3475 10.5 5.6875 C11.08910156 6.74710938 11.67820313 7.80671875 12.28515625 8.8984375 C13.04469061 10.28622867 13.8037824 11.67426213 14.5625 13.0625 C14.95244141 13.76117188 15.34238281 14.45984375 15.74414062 15.1796875 C16.72415178 16.98360184 17.61875071 18.83333482 18.5 20.6875 C18.17 21.3475 17.84 22.0075 17.5 22.6875 C16.8709375 21.84445313 16.241875 21.00140625 15.59375 20.1328125 C14.73020944 19.02522787 13.86556673 17.91850193 13 16.8125 C12.59007812 16.25691406 12.18015625 15.70132813 11.7578125 15.12890625 C8.9011737 11.53646655 6.48888321 9.8015212 1.81054688 8.92626953 C-2.79449872 8.45038887 -7.37603051 8.48361338 -12 8.5625 C-13.01320313 8.57152344 -14.02640625 8.58054688 -15.0703125 8.58984375 C-17.54712801 8.61320993 -20.02343379 8.64596832 -22.5 8.6875 C-17.17861342 -0.68310495 -10.15642337 -3.36200496 0 0 Z " fill="#2E7FE1" transform="translate(133.5,203.3125)"/>
<path d="M0 0 C2.64 0 5.28 0 8 0 C8 10.23 8 20.46 8 31 C5.36 31 2.72 31 0 31 C0 20.77 0 10.54 0 0 Z " fill="#E5E7EF" transform="translate(272,258)"/>
<path d="M0 0 C0 3.3 0 6.6 0 10 C2.64 10 5.28 10 8 10 C8 11.32 8 12.64 8 14 C5.36 14 2.72 14 0 14 C0.1095693 17.45900478 0.24026848 20.91689109 0.375 24.375 C0.4059375 25.35984375 0.436875 26.3446875 0.46875 27.359375 C0.50742187 28.30039063 0.54609375 29.24140625 0.5859375 30.2109375 C0.6173584 31.08024902 0.6487793 31.94956055 0.68115234 32.84521484 C0.81229433 35.20961794 0.81229433 35.20961794 3 37 C5.06874034 37.6425235 5.06874034 37.6425235 7 38 C7 39.32 7 40.64 7 42 C3.26523007 42.43427557 1.48566204 42.32189228 -1.6875 40.21875 C-5.16209174 35.38249392 -4.54251394 30.9803126 -4.3125 25.1875 C-4.28994141 24.11306641 -4.26738281 23.03863281 -4.24414062 21.93164062 C-4.18535598 19.2863315 -4.10323957 16.64388587 -4 14 C-5.65 14 -7.3 14 -9 14 C-9 12.68 -9 11.36 -9 10 C-7.35 10 -5.7 10 -4 10 C-4.061875 8.72125 -4.12375 7.4425 -4.1875 6.125 C-4.29296875 3.9453125 -4.29296875 3.9453125 -4 2 C-1 0 -1 0 0 0 Z " fill="#ECEFF5" transform="translate(361,196)"/>
<path d="M0 0 C1.65 0 3.3 0 5 0 C5 14.52 5 29.04 5 44 C3.35 44 1.7 44 0 44 C0 29.48 0 14.96 0 0 Z " fill="#E6E9F0" transform="translate(219,193)"/>
<path d="M0 0 C4.97209562 1.76429199 9.43438061 4.3939166 14 7 C14 8.32 14 9.64 14 11 C11.734375 12.95703125 11.734375 12.95703125 8.75 14.8125 C7.77546875 15.43769531 6.8009375 16.06289063 5.796875 16.70703125 C3 18 3 18 0.640625 17.69921875 C0.09921875 17.46847656 -0.4421875 17.23773438 -1 17 C-1.02684679 14.35409986 -1.04676357 11.70846904 -1.0625 9.0625 C-1.07087891 8.30775391 -1.07925781 7.55300781 -1.08789062 6.77539062 C-1.09652441 4.85005687 -1.05224333 2.92464419 -1 1 C-0.67 0.67 -0.34 0.34 0 0 Z " fill="#3B83E7" transform="translate(141,242)"/>
<path d="M0 0 C1.65 0 3.3 0 5 0 C5 10.23 5 20.46 5 31 C3.35 31 1.7 31 0 31 C0 20.77 0 10.54 0 0 Z " fill="#E1E3EC" transform="translate(291,206)"/>
<path d="M0 0 C3.63020487 0.07599463 4.34066035 0.18783592 7.1875 2.6875 C8.625 5.4375 8.625 5.4375 8.625 9.4375 C3.345 9.4375 -1.935 9.4375 -7.375 9.4375 C-6.05119728 0.17088099 -6.05119728 0.17088099 0 0 Z " fill="#0B1035" transform="translate(387.375,209.5625)"/>
<path d="M0 0 C1.32 0 2.64 0 4 0 C4 10.23 4 20.46 4 31 C2.68 31 1.36 31 0 31 C0 20.77 0 10.54 0 0 Z " fill="#F3F5FB" transform="translate(341,206)"/>
<path d="M0 0 C0.66 0 1.32 0 2 0 C2.53084792 2.91516484 3.04999055 5.83160557 3.5625 8.75 C3.71396484 9.575 3.86542969 10.4 4.02148438 11.25 C4.2293457 12.44882813 4.2293457 12.44882813 4.44140625 13.671875 C4.57232666 14.4050293 4.70324707 15.13818359 4.83813477 15.89355469 C5.01247412 18.16233287 4.66874807 19.83778579 4 22 C3.51789063 21.50628906 3.03578125 21.01257813 2.5390625 20.50390625 C1.59160156 19.54291016 1.59160156 19.54291016 0.625 18.5625 C-0.00148438 17.92441406 -0.62796875 17.28632813 -1.2734375 16.62890625 C-2.91723061 14.92117824 -2.91723061 14.92117824 -5 14 C-4.46515599 8.65155992 -2.53309233 4.64203897 0 0 Z " fill="#1D33DC" transform="translate(90,219)"/>
<path d="M0 0 C1.21065165 3.63195496 0.62784815 5.06531629 -0.4375 8.6875 C-0.72496094 9.68136719 -1.01242188 10.67523438 -1.30859375 11.69921875 C-1.53675781 12.45847656 -1.76492187 13.21773438 -2 14 C-7.08086796 14.84681133 -11.84828377 15.09038099 -17 15 C-13.41157029 11.30504919 -9.66828129 7.95241783 -5.6875 4.6875 C-5.13771484 4.23310547 -4.58792969 3.77871094 -4.02148438 3.31054688 C-2.68287784 2.20474148 -1.34170769 1.10204061 0 0 Z " fill="#1F3DE4" transform="translate(159,299)"/>
<path d="M0 0 C0.5607976 3.15152456 0.72568506 5.86560368 0 9 C-2.55037291 11.75801389 -5.58355122 13.36689686 -8.875 15.125 C-9.71675781 15.61742187 -10.55851563 16.10984375 -11.42578125 16.6171875 C-15.8552058 19.14018772 -15.8552058 19.14018772 -18 20 C-18.66 19.67 -19.32 19.34 -20 19 C-18.54782324 17.49403892 -17.08807139 15.99537896 -15.625 14.5 C-14.81289062 13.6646875 -14.00078125 12.829375 -13.1640625 11.96875 C-11 10 -11 10 -9 10 C-8.79375 9.46375 -8.5875 8.9275 -8.375 8.375 C-6.93750621 5.89205618 -3.18977926 0 0 0 Z " fill="#368BDD" transform="translate(190,271)"/>
<path d="M0 0 C1.9375 1.1875 1.9375 1.1875 3 3 C2.75546876 6.34192692 2.39456443 7.60543557 0 10 C-3.1304173 10.33302312 -5.17898298 10.47671956 -7.9375 8.875 C-9 7 -9 7 -8.8125 3.875 C-8.544375 2.92625 -8.27625 1.9775 -8 1 C-5.20129973 -0.39935013 -3.09501208 -0.25265405 0 0 Z " fill="#33A7ED" transform="translate(246,302)"/>
<path d="M0 0 C1 2 1 2 0.39501953 3.98364258 C0.06099121 4.77923584 -0.27303711 5.5748291 -0.6171875 6.39453125 C-0.97683594 7.26787109 -1.33648437 8.14121094 -1.70703125 9.04101562 C-2.09246094 9.95560547 -2.47789063 10.87019531 -2.875 11.8125 C-3.62642553 13.60899688 -4.37395159 15.40713077 -5.1171875 17.20703125 C-5.45347168 18.0060083 -5.78975586 18.80498535 -6.13623047 19.62817383 C-7.02864406 22.07865377 -7.5492603 24.43447395 -8 27 C-8.33333333 28.66666667 -8.66666667 30.33333333 -9 32 C-9.33 32 -9.66 32 -10 32 C-10.40743184 30.0137698 -10.71818839 28.0079077 -11 26 C-11.103125 25.33484375 -11.20625 24.6696875 -11.3125 23.984375 C-11.95747972 16.51335993 -8.22425412 11.8614918 -4 6 C-3.18214219 4.77439176 -2.3683653 3.54602667 -1.5625 2.3125 C-1.046875 1.549375 -0.53125 0.78625 0 0 Z " fill="#2882D4" transform="translate(117,257)"/>
<path d="M0 0 C4 1 4 1 6 4 C6.6496875 3.01 6.6496875 3.01 7.3125 2 C7.869375 1.34 8.42625 0.68 9 0 C9.99 0 10.98 0 12 0 C12 3.3 12 6.6 12 10 C11.01 10 10.02 10 9 10 C8.67 9.34 8.34 8.68 8 8 C7.01 8.33 6.02 8.66 5 9 C4.67 8.34 4.34 7.68 4 7 C3.67 7.99 3.34 8.98 3 10 C2.01 10 1.02 10 0 10 C0 6.7 0 3.4 0 0 Z " fill="#309DE1" transform="translate(393,302)"/>
<path d="M0 0 C3.9492568 0.55105909 7.34920174 1.38935371 11 3 C10.01 3.495 10.01 3.495 9 4 C9.58910156 5.05960938 10.17820313 6.11921875 10.78515625 7.2109375 C11.54469061 8.59872867 12.3037824 9.98676213 13.0625 11.375 C13.45244141 12.07367188 13.84238281 12.77234375 14.24414062 13.4921875 C15.22415178 15.29610184 16.11875071 17.14583482 17 19 C16.67 19.66 16.34 20.32 16 21 C13.70197366 18.25525954 11.41272567 15.50332933 9.125 12.75 C8.47402344 11.97269531 7.82304687 11.19539062 7.15234375 10.39453125 C6.52714844 9.64042969 5.90195313 8.88632813 5.2578125 8.109375 C4.39373779 7.07248535 4.39373779 7.07248535 3.51220703 6.01464844 C2.05953371 4.0793142 1.00333857 2.1961488 0 0 Z " fill="#2884D5" transform="translate(135,205)"/>
<path d="M0 0 C3.83736322 0.95934081 4.59660228 1.23609263 7 4 C7.45375 3.34 7.9075 2.68 8.375 2 C8.91125 1.34 9.4475 0.68 10 0 C10.66 0 11.32 0 12 0 C12 3.3 12 6.6 12 10 C11.34 10 10.68 10 10 10 C9.67 8.68 9.34 7.36 9 6 C8.01 7.485 8.01 7.485 7 9 C6.34 9 5.68 9 5 9 C4.67 8.34 4.34 7.68 4 7 C3.67 7.99 3.34 8.98 3 10 C2.01 10 1.02 10 0 10 C0 6.7 0 3.4 0 0 Z " fill="#319FE4" transform="translate(216,302)"/>
<path d="M0 0 C6.15234375 -0.09765625 6.15234375 -0.09765625 8 0 C9 1 9 1 9.09765625 3.06640625 C9.08605469 3.89011719 9.07445312 4.71382813 9.0625 5.5625 C9.05347656 6.38878906 9.04445313 7.21507812 9.03515625 8.06640625 C9.02355469 8.70449219 9.01195312 9.34257812 9 10 C7.68 9.67 6.36 9.34 5 9 C5 8.34 5 7.68 5 7 C4.34 7 3.68 7 3 7 C3 7.99 3 8.98 3 10 C2.01 10 1.02 10 0 10 C0 6.7 0 3.4 0 0 Z " fill="#309CE0" transform="translate(339,302)"/>
<path d="M0 0 C2.4608831 0.78436907 4.91850969 1.57708891 7.375 2.375 C8.07367188 2.59671875 8.77234375 2.8184375 9.4921875 3.046875 C14.7734375 4.7734375 14.7734375 4.7734375 17 7 C17.125 10.625 17.125 10.625 17 14 C13.54252539 12.45977929 10.85692617 10.3954266 7.9375 8 C5.33313035 5.86950813 2.80180594 3.86787063 0 2 C0 1.34 0 0.68 0 0 Z " fill="#3E86F0" transform="translate(173,224)"/>
<path d="M0 0 C1.65 0.33 3.3 0.66 5 1 C5.99 3.97 6.98 6.94 8 10 C7.01 10 6.02 10 5 10 C5 9.34 5 8.68 5 8 C3.35 8 1.7 8 0 8 C0 8.66 0 9.32 0 10 C-1.32 9.67 -2.64 9.34 -4 9 C-2.68 6.03 -1.36 3.06 0 0 Z " fill="#31A0E5" transform="translate(377,302)"/>
<path d="M0 0 C0.66 0.33 1.32 0.66 2 1 C1.01 2.485 1.01 2.485 0 4 C-0.103125 5.051875 -0.20625 6.10375 -0.3125 7.1875 C-1.16143264 11.89521736 -3.10103702 15.22938937 -6 19 C-6.33 19 -6.66 19 -7 19 C-8.0735426 9.73004484 -8.0735426 9.73004484 -5.44140625 5.48828125 C-3.70637388 3.54378823 -1.945725 1.73229088 0 0 Z " fill="#2774E1" transform="translate(103,199)"/>
<path d="M0 0 C0 2.97 0 5.94 0 9 C-1.60433809 8.52140759 -3.20846416 8.04210442 -4.8125 7.5625 C-5.70582031 7.29566406 -6.59914062 7.02882812 -7.51953125 6.75390625 C-9.35473055 6.19612127 -11.18033726 5.60655425 -13 5 C-13 4.34 -13 3.68 -13 3 C-11.2092015 2.49689942 -9.41733089 1.99761372 -7.625 1.5 C-6.62726563 1.2215625 -5.62953125 0.943125 -4.6015625 0.65625 C-2 0 -2 0 0 0 Z " fill="#223CFB" transform="translate(190,211)"/>
<path d="M0 0 C2.64 0 5.28 0 8 0 C8 0.66 8 1.32 8 2 C6.35 2 4.7 2 3 2 C3 2.66 3 3.32 3 4 C4.65 4 6.3 4 8 4 C8 4.66 8 5.32 8 6 C6.35 6 4.7 6 3 6 C3 6.66 3 7.32 3 8 C4.98 8 6.96 8 9 8 C9 8.66 9 9.32 9 10 C6.03 10 3.06 10 0 10 C0 6.7 0 3.4 0 0 Z " fill="#32A5EA" transform="translate(288,302)"/>
<path d="M0 0 C0.33 0 0.66 0 1 0 C1.20348883 4.00194689 1.30580514 7.06219756 0.0625 10.875 C-3.0570566 14.08908862 -6.67468539 14.39246105 -11 15 C-10.62488281 14.5875 -10.24976563 14.175 -9.86328125 13.75 C-6.43724843 9.8838471 -3.59373164 5.96083034 -0.98046875 1.50390625 C-0.65691406 1.00761719 -0.33335937 0.51132813 0 0 Z " fill="#4585E6" transform="translate(189,255)"/>
<path d="M0 0 C2.64 0 5.28 0 8 0 C8 0.66 8 1.32 8 2 C6.35 2 4.7 2 3 2 C3 2.66 3 3.32 3 4 C4.65 4 6.3 4 8 4 C8 4.66 8 5.32 8 6 C6.35 6 4.7 6 3 6 C3 6.66 3 7.32 3 8 C4.65 8 6.3 8 8 8 C8 8.66 8 9.32 8 10 C5.36 10 2.72 10 0 10 C0 6.7 0 3.4 0 0 Z " fill="#34ABF2" transform="translate(357,302)"/>
<path d="M0 0 C9.83902422 -0.60238924 20.34695885 1.24748355 29 6 C26.00876398 7.49561801 24.01225299 6.42769983 20.8125 5.625 C16.20907432 4.5120839 11.70909542 3.55401123 7 3 C5.52075484 2.81312027 4.04158957 2.62560721 2.5625 2.4375 C1.386875 2.293125 0.21125 2.14875 -1 2 C-0.67 1.34 -0.34 0.68 0 0 Z " fill="#2951E7" transform="translate(122,200)"/>
<path d="M0 0 C2.31 0 4.62 0 7 0 C7 0.66 7 1.32 7 2 C5.35 2 3.7 2 2 2 C2 2.66 2 3.32 2 4 C3.65 4.33 5.3 4.66 7 5 C7 6.32 7 7.64 7 9 C6 10 6 10 2.4375 10.0625 C1.303125 10.041875 0.16875 10.02125 -1 10 C-1 9.01 -1 8.02 -1 7 C1.475 7.495 1.475 7.495 4 8 C4 7.34 4 6.68 4 6 C2.35 5.67 0.7 5.34 -1 5 C-0.67 3.35 -0.34 1.7 0 0 Z " fill="#32A2E7" transform="translate(306,302)"/>
<path d="M0 0 C0.66 0.33 1.32 0.66 2 1 C2.92350727 3.77052181 3.16329585 5.56688758 3.1875 8.4375 C3.20167969 9.19933594 3.21585938 9.96117187 3.23046875 10.74609375 C2.97612666 13.23347315 2.24017196 14.84808106 1 17 C0.34 17 -0.32 17 -1 17 C-1.02684679 14.35409986 -1.04676357 11.70846904 -1.0625 9.0625 C-1.07087891 8.30775391 -1.07925781 7.55300781 -1.08789062 6.77539062 C-1.09652441 4.85005687 -1.05224333 2.92464419 -1 1 C-0.67 0.67 -0.34 0.34 0 0 Z " fill="#2245F0" transform="translate(141,242)"/>
<path d="M0 0 C2.64 0 5.28 0 8 0 C8 2.31 8 4.62 8 7 C5.36 7 2.72 7 0 7 C0 4.69 0 2.38 0 0 Z " fill="#E2E4ED" transform="translate(272,245)"/>
<path d="M0 0 C0.99 0 1.98 0 3 0 C3.66 1.32 4.32 2.64 5 4 C5.45375 3.34 5.9075 2.68 6.375 2 C6.91125 1.34 7.4475 0.68 8 0 C8.66 0 9.32 0 10 0 C9.39009109 3.55780196 8.4216319 6.6828589 7 10 C5.68 10 4.36 10 3 10 C2.01 6.7 1.02 3.4 0 0 Z " fill="#33A6EC" transform="translate(257,302)"/>
<path d="M0 0 C7.37381351 -0.33687473 14.31043493 -0.50615362 21 3 C23.0625 5.1875 23.0625 5.1875 24 7 C20.21848018 6.3351174 16.74273398 5.27795278 13.125 4 C8.7023127 2.49301025 4.64561816 1.42232892 0 1 C0 0.67 0 0.34 0 0 Z " fill="#336CF4" transform="translate(121,211)"/>
<path d="M0 0 C0.66 0.33 1.32 0.66 2 1 C1.67 1.66 1.34 2.32 1 3 C3.31 3.66 5.62 4.32 8 5 C8 5.33 8 5.66 8 6 C2.91913204 6.84681133 -1.84828377 7.09038099 -7 7 C-4.66666667 4.66666667 -2.33333333 2.33333333 0 0 Z " fill="#1B31D4" transform="translate(149,307)"/>
<path d="M0 0 C3.82097239 0.53069061 6.06171403 1.49701566 9 4 C8.67 4.99 8.34 5.98 8 7 C6.824375 7.2165625 6.824375 7.2165625 5.625 7.4375 C3.03578982 7.87798925 3.03578982 7.87798925 1 9 C0.67 6.03 0.34 3.06 0 0 Z " fill="#459AE8" transform="translate(147,246)"/>
<path d="M0 0 C2.97 0 5.94 0 9 0 C9 0.66 9 1.32 9 2 C8.01 2 7.02 2 6 2 C6 4.64 6 7.28 6 10 C5.01 10 4.02 10 3 10 C3 7.36 3 4.72 3 2 C2.01 2 1.02 2 0 2 C0 1.34 0 0.68 0 0 Z " fill="#33A8EE" transform="translate(322,302)"/>
<path d="M0 0 C-0.99 1.485 -0.99 1.485 -2 3 C-4.33837891 3.2487793 -4.33837891 3.2487793 -7.2265625 3.07421875 C-8.2578125 3.01943359 -9.2890625 2.96464844 -10.3515625 2.90820312 C-11.97191406 2.79895508 -11.97191406 2.79895508 -13.625 2.6875 C-14.71296875 2.62626953 -15.8009375 2.56503906 -16.921875 2.50195312 C-19.61569749 2.34835798 -22.30786572 2.18046592 -25 2 C-25 1.67 -25 1.34 -25 1 C-8.29157175 -0.14806378 -8.29157175 -0.14806378 0 0 Z " fill="#3589D8" transform="translate(165,289)"/>
<path d="M0 0 C2.1991413 4.39828259 2.51855059 7.18550592 3 12 C2.34 12 1.68 12 1 12 C1 17.94 1 23.88 1 30 C0.67 30 0.34 30 0 30 C0 20.1 0 10.2 0 0 Z " fill="#3B7DCB" transform="translate(97,254)"/>
<path d="M0 0 C1.98 0 3.96 0 6 0 C6 1.98 6 3.96 6 6 C4.02 6 2.04 6 0 6 C0 4.02 0 2.04 0 0 Z " fill="#CFD2DD" transform="translate(340,193)"/>
<path d="M0 0 C3.375 0.25 3.375 0.25 7 1 C8.5 2.8125 8.5 2.8125 9 5 C8.70549668 6.34244429 8.37683609 7.67830282 8 9 C6.66368764 7.6905332 5.33102075 6.37734515 4 5.0625 C3.2575 4.33160156 2.515 3.60070312 1.75 2.84765625 C0 1 0 1 0 0 Z " fill="#2243F3" transform="translate(86,232)"/>
<path d="M0 0 C0.66 0 1.32 0 2 0 C2.33 2.97 2.66 5.94 3 9 C2.34 8.34 1.68 7.68 1 7 C0.54625 7.495 0.0925 7.99 -0.375 8.5 C-2 10 -2 10 -4 10 C-2.8905928 6.51329166 -1.73662334 3.22515763 0 0 Z " fill="#172AB8" transform="translate(90,219)"/>
<path d="M0 0 C0.99 0 1.98 0 3 0 C3 3.3 3 6.6 3 10 C2.01 10 1.02 10 0 10 C0 6.7 0 3.4 0 0 Z " fill="#36B1F8" transform="translate(276,302)"/>
<path d="M0 0 C1.65 0 3.3 0 5 0 C5 1.98 5 3.96 5 6 C3.35 6 1.7 6 0 6 C0 4.02 0 2.04 0 0 Z " fill="#E5E7EF" transform="translate(291,193)"/>
<path d="M0 0 C1.65 0.33 3.3 0.66 5 1 C4.6875 2.9375 4.6875 2.9375 4 5 C3.01 5.33 2.02 5.66 1 6 C0.34 5.67 -0.32 5.34 -1 5 C-0.67 3.35 -0.34 1.7 0 0 Z " fill="#0D2550" transform="translate(241,304)"/>
<path d="M0 0 C0.99 0 1.98 0 3 0 C3 3.3 3 6.6 3 10 C2.34 10 1.68 10 1 10 C1 8.35 1 6.7 1 5 C0.34 5 -0.32 5 -1 5 C-0.67 3.35 -0.34 1.7 0 0 Z " fill="#37B2FB" transform="translate(402,302)"/>
<path d="M0 0 C0.66 0 1.32 0 2 0 C2 2.97 2 5.94 2 9 C-0.31 8.34 -2.62 7.68 -5 7 C-4.175 6.401875 -3.35 5.80375 -2.5 5.1875 C-1.2625 4.1046875 -1.2625 4.1046875 0 3 C0 2.01 0 1.02 0 0 Z " fill="#1C33DB" transform="translate(188,211)"/>
<path d="M0 0 C2.31 0 4.62 0 7 0 C7 0.66 7 1.32 7 2 C5.35 2 3.7 2 2 2 C2.33 2.99 2.66 3.98 3 5 C1.68 5 0.36 5 -1 5 C-0.67 3.35 -0.34 1.7 0 0 Z " fill="#34A9EF" transform="translate(306,302)"/>
<path d="M0 0 C0.66 0 1.32 0 2 0 C2 3.3 2 6.6 2 10 C1.34 10 0.68 10 0 10 C0 8.02 0 6.04 0 4 C-0.66 4 -1.32 4 -2 4 C-1.34 2.68 -0.68 1.36 0 0 Z " fill="#37B3FB" transform="translate(226,302)"/>
<path d="M0 0 C2.97 0.495 2.97 0.495 6 1 C6.33 3.64 6.66 6.28 7 9 C4.03595495 6.19195732 1.55500981 3.81684226 0 0 Z " fill="#2B88D4" transform="translate(165,216)"/>
<path d="M0 0 C0.66 0 1.32 0 2 0 C1.67 2.97 1.34 5.94 1 9 C0.34 8.67 -0.32 8.34 -1 8 C-1.75 5.0625 -1.75 5.0625 -2 2 C-1.34 1.34 -0.68 0.68 0 0 Z " fill="#223CFA" transform="translate(156,303)"/>
<path d="M0 0 C2.64 0.33 5.28 0.66 8 1 C6 3 6 3 4.0546875 3.1953125 C2.03645833 3.13020833 0.01822917 3.06510417 -2 3 C-1.34 2.01 -0.68 1.02 0 0 Z " fill="#1629B3" transform="translate(144,311)"/>
<path d="M0 0 C0 3.21534057 -0.26476072 4.35582586 -2 7 C-4.5 8.8125 -4.5 8.8125 -7 10 C-7.66 9.67 -8.32 9.34 -9 9 C-6.03 6.03 -3.06 3.06 0 0 Z " fill="#327ACE" transform="translate(179,281)"/>
<path d="M0 0 C0.33 0.99 0.66 1.98 1 3 C-1.31 4.98 -3.62 6.96 -6 9 C-6.66 8.67 -7.32 8.34 -8 8 C-5.36 5.36 -2.72 2.72 0 0 Z " fill="#3676CF" transform="translate(189,271)"/>
<path d="M0 0 C-1.1875 1.5625 -1.1875 1.5625 -3 3 C-5.6875 2.6875 -5.6875 2.6875 -8 2 C-8 1.34 -8 0.68 -8 0 C-4.94736336 -0.98120464 -3.05263664 -0.98120464 0 0 Z " fill="#1E46D7" transform="translate(185,214)"/>
<path d="M0 0 C1.32 0.33 2.64 0.66 4 1 C3.67 4.3 3.34 7.6 3 11 C2.67 11 2.34 11 2 11 C1.34 7.37 0.68 3.74 0 0 Z " fill="#3876EB" transform="translate(142,243)"/>
</svg>
